<?xml version="1.0" encoding="UTF-8" standalone="no"?>
<!DOCTYPE svg PUBLIC "-//W3C//DTD SVG 1.1//EN"
 "http://www.w3.org/Graphics/SVG/1.1/DTD/svg11.dtd">
<!-- Generated by graphviz version 12.1.1 (20240910.0053)
 -->
<!-- Title: INFRA Pages: 1 -->
<svg width="1430pt" height="188pt"
 viewBox="0.00 0.00 1429.92 188.00" xmlns="http://www.w3.org/2000/svg" xmlns:xlink="http://www.w3.org/1999/xlink">
<g id="graph0" class="graph" transform="scale(1 1) rotate(0) translate(4 184)">
<title>INFRA</title>
<polygon fill="white" stroke="none" points="-4,4 -4,-184 1425.92,-184 1425.92,4 -4,4"/>
<!-- BankDbContext -->
<g id="node1" class="node">
<title>BankDbContext</title>
<path fill="#ffcfb3" stroke="black" stroke-width="2" d="M314.37,-65.45C314.37,-69.07 249.07,-72 168.67,-72 88.28,-72 22.97,-69.07 22.97,-65.45 22.97,-65.45 22.97,-6.55 22.97,-6.55 22.97,-2.93 88.28,0 168.67,0 249.07,0 314.37,-2.93 314.37,-6.55 314.37,-6.55 314.37,-65.45 314.37,-65.45"/>
<path fill="none" stroke="black" stroke-width="2" d="M314.37,-65.45C314.37,-61.84 249.07,-58.91 168.67,-58.91 88.28,-58.91 22.97,-61.84 22.97,-65.45"/>
<text text-anchor="middle" x="168.67" y="-40.2" font-family="Arial" font-size="14.00">BankDbContext</text>
<text text-anchor="middle" x="168.67" y="-23.4" font-family="Arial" font-size="14.00">(Microsoft.EntityFrameworkCore.DbContext)</text>
</g>
<!-- BankAccountRepository -->
<g id="node2" class="node">
<title>BankAccountRepository</title>
<path fill="#ffcfb3" stroke="black" stroke-width="2" d="M337.34,-173.45C337.34,-177.07 261.74,-180 168.67,-180 75.6,-180 0,-177.07 0,-173.45 0,-173.45 0,-114.55 0,-114.55 0,-110.93 75.6,-108 168.67,-108 261.74,-108 337.34,-110.93 337.34,-114.55 337.34,-114.55 337.34,-173.45 337.34,-173.45"/>
<path fill="none" stroke="black" stroke-width="2" d="M337.34,-173.45C337.34,-169.84 261.74,-166.91 168.67,-166.91 75.6,-166.91 0,-169.84 0,-173.45"/>
<text text-anchor="middle" x="168.67" y="-148.2" font-family="Arial" font-size="14.00">BankAccountRepository</text>
<text text-anchor="middle" x="168.67" y="-131.4" font-family="Arial" font-size="14.00">(BFB.DataAccess.MSSQL.BankAccountRepository)</text>
</g>
<!-- BankAccountRepository&#45;&gt;BankDbContext -->
<g id="edge1" class="edge">
<title>BankAccountRepository&#45;&gt;BankDbContext</title>
<path fill="none" stroke="black" d="M168.67,-107.7C168.67,-99.93 168.67,-91.57 168.67,-83.43"/>
<polygon fill="black" stroke="black" points="172.17,-83.66 168.67,-73.66 165.17,-83.66 172.17,-83.66"/>
</g>
<!-- BankMongoDbContext -->
<g id="node3" class="node">
<title>BankMongoDbContext</title>
<path fill="#ffcfb3" stroke="black" stroke-width="2" d="M945.96,-65.45C945.96,-69.07 873.67,-72 784.67,-72 695.67,-72 623.38,-69.07 623.38,-65.45 623.38,-65.45 623.38,-6.55 623.38,-6.55 623.38,-2.93 695.67,0 784.67,0 873.67,0 945.96,-2.93 945.96,-6.55 945.96,-6.55 945.96,-65.45 945.96,-65.45"/>
<path fill="none" stroke="black" stroke-width="2" d="M945.96,-65.45C945.96,-61.84 873.67,-58.91 784.67,-58.91 695.67,-58.91 623.38,-61.84 623.38,-65.45"/>
<text text-anchor="middle" x="784.67" y="-40.2" font-family="Arial" font-size="14.00">BankMongoDbContext</text>
<text text-anchor="middle" x="784.67" y="-23.4" font-family="Arial" font-size="14.00">(BFB.DataAccess.Mongo.BankMongoDbContext)</text>
</g>
<!-- BankBranchRepository -->
<g id="node4" class="node">
<title>BankBranchRepository</title>
<path fill="#ffcfb3" stroke="black" stroke-width="2" d="M947.13,-173.45C947.13,-177.07 874.31,-180 784.67,-180 695.03,-180 622.22,-177.07 622.22,-173.45 622.22,-173.45 622.22,-114.55 622.22,-114.55 622.22,-110.93 695.03,-108 784.67,-108 874.31,-108 947.13,-110.93 947.13,-114.55 947.13,-114.55 947.13,-173.45 947.13,-173.45"/>
<path fill="none" stroke="black" stroke-width="2" d="M947.13,-173.45C947.13,-169.84 874.31,-166.91 784.67,-166.91 695.03,-166.91 622.22,-169.84 622.22,-173.45"/>
<text text-anchor="middle" x="784.67" y="-148.2" font-family="Arial" font-size="14.00">BankBranchRepository</text>
<text text-anchor="middle" x="784.67" y="-131.4" font-family="Arial" font-size="14.00">(BFB.DataAccess.Mongo.BankBranchRepository)</text>
</g>
<!-- BankBranchRepository&#45;&gt;BankMongoDbContext -->
<g id="edge2" class="edge">
<title>BankBranchRepository&#45;&gt;BankMongoDbContext</title>
<path fill="none" stroke="black" d="M784.67,-107.7C784.67,-99.93 784.67,-91.57 784.67,-83.43"/>
<polygon fill="black" stroke="black" points="788.17,-83.66 784.67,-73.66 781.17,-83.66 788.17,-83.66"/>
</g>
<!-- BankDB2Context -->
<g id="node5" class="node">
<title>BankDB2Context</title>
<path fill="#ffcfb3" stroke="black" stroke-width="2" d="M605.44,-65.45C605.44,-69.07 544.14,-72 468.67,-72 393.2,-72 331.9,-69.07 331.9,-65.45 331.9,-65.45 331.9,-6.55 331.9,-6.55 331.9,-2.93 393.2,0 468.67,0 544.14,0 605.44,-2.93 605.44,-6.55 605.44,-6.55 605.44,-65.45 605.44,-65.45"/>
<path fill="none" stroke="black" stroke-width="2" d="M605.44,-65.45C605.44,-61.84 544.14,-58.91 468.67,-58.91 393.2,-58.91 331.9,-61.84 331.9,-65.45"/>
<text text-anchor="middle" x="468.67" y="-40.2" font-family="Arial" font-size="14.00">BankDB2Context</text>
<text text-anchor="middle" x="468.67" y="-23.4" font-family="Arial" font-size="14.00">(BFB.DataAccess.DB2.BankDB2Context)</text>
</g>
<!-- MongoDB -->
<g id="node6" class="node">
<title>MongoDB</title>
<path fill="#ffcfb3" stroke="black" stroke-width="2" d="M1052.46,-173.45C1052.46,-177.07 1032.83,-180 1008.67,-180 984.51,-180 964.88,-177.07 964.88,-173.45 964.88,-173.45 964.88,-114.55 964.88,-114.55 964.88,-110.93 984.51,-108 1008.67,-108 1032.83,-108 1052.46,-110.93 1052.46,-114.55 1052.46,-114.55 1052.46,-173.45 1052.46,-173.45"/>
<path fill="none" stroke="black" stroke-width="2" d="M1052.46,-173.45C1052.46,-169.84 1032.83,-166.91 1008.67,-166.91 984.51,-166.91 964.88,-169.84 964.88,-173.45"/>
<text text-anchor="middle" x="1008.67" y="-148.2" font-family="Arial" font-size="14.00">MongoDB</text>
<text text-anchor="middle" x="1008.67" y="-131.4" font-family="Arial" font-size="14.00">(MongoDB)</text>
</g>
<!-- DB2 -->
<g id="node7" class="node">
<title>DB2</title>
<path fill="#ffcfb3" stroke="black" stroke-width="2" d="M1151.34,-173.45C1151.34,-177.07 1133.11,-180 1110.67,-180 1088.23,-180 1070,-177.07 1070,-173.45 1070,-173.45 1070,-114.55 1070,-114.55 1070,-110.93 1088.23,-108 1110.67,-108 1133.11,-108 1151.34,-110.93 1151.34,-114.55 1151.34,-114.55 1151.34,-173.45 1151.34,-173.45"/>
<path fill="none" stroke="black" stroke-width="2" d="M1151.34,-173.45C1151.34,-169.84 1133.11,-166.91 1110.67,-166.91 1088.23,-166.91 1070,-169.84 1070,-173.45"/>
<text text-anchor="middle" x="1110.67" y="-148.2" font-family="Arial" font-size="14.00">DB2</text>
<text text-anchor="middle" x="1110.67" y="-131.4" font-family="Arial" font-size="14.00">(IBM DB2)</text>
</g>
<!-- RetryPolicyService -->
<g id="node8" class="node">
<title>RetryPolicyService</title>
<path fill="#e6e6e6" stroke="black" stroke-width="2" d="M1409.92,-180C1409.92,-180 1181.42,-180 1181.42,-180 1175.42,-180 1169.42,-174 1169.42,-168 1169.42,-168 1169.42,-120 1169.42,-120 1169.42,-114 1175.42,-108 1181.42,-108 1181.42,-108 1409.92,-108 1409.92,-108 1415.92,-108 1421.92,-114 1421.92,-120 1421.92,-120 1421.92,-168 1421.92,-168 1421.92,-174 1415.92,-180 1409.92,-180"/>
<text text-anchor="middle" x="1295.67" y="-148.2" font-family="Arial" font-size="14.00">RetryPolicyService</text>
<text text-anchor="middle" x="1295.67" y="-131.4" font-family="Arial" font-size="14.00">(BFB.DataAccess.RetryPolicyService)</text>
</g>
<!-- WebApplication -->
<g id="node9" class="node">
<title>WebApplication</title>
<path fill="#b7e0ff" stroke="black" stroke-width="2" d="M568.93,-180C568.93,-180 368.41,-180 368.41,-180 362.41,-180 356.41,-174 356.41,-168 356.41,-168 356.41,-120 356.41,-120 356.41,-114 362.41,-108 368.41,-108 368.41,-108 568.93,-108 568.93,-108 574.93,-108 580.93,-114 580.93,-120 580.93,-120 580.93,-168 580.93,-168 580.93,-174 574.93,-180 568.93,-180"/>
<text text-anchor="middle" x="468.67" y="-148.2" font-family="Arial" font-size="14.00">WebApplication</text>
<text text-anchor="middle" x="468.67" y="-131.4" font-family="Arial" font-size="14.00">(ASP.NET Core Web Application)</text>
</g>
<!-- WebApplication&#45;&gt;BankDbContext -->
<g id="edge3" class="edge">
<title>WebApplication&#45;&gt;BankDbContext</title>
<path fill="none" stroke="black" d="M368.36,-107.56C339.23,-97.26 307.29,-85.98 277.65,-75.51"/>
<polygon fill="black" stroke="black" points="278.87,-72.23 268.28,-72.19 276.54,-78.83 278.87,-72.23"/>
</g>
<!-- WebApplication&#45;&gt;BankMongoDbContext -->
<g id="edge4" class="edge">
<title>WebApplication&#45;&gt;BankMongoDbContext</title>
<path fill="none" stroke="black" d="M574.33,-107.56C605.12,-97.23 638.9,-85.9 670.21,-75.4"/>
<polygon fill="black" stroke="black" points="670.92,-78.85 679.29,-72.35 668.69,-72.21 670.92,-78.85"/>
</g>
<!-- WebApplication&#45;&gt;BankDB2Context -->
<g id="edge5" class="edge">
<title>WebApplication&#45;&gt;BankDB2Context</title>
<path fill="none" stroke="black" d="M468.67,-107.7C468.67,-99.93 468.67,-91.57 468.67,-83.43"/>
<polygon fill="black" stroke="black" points="472.17,-83.66 468.67,-73.66 465.17,-83.66 472.17,-83.66"/>
</g>
</g>
</svg>
